<?xml version="1.0" standalone="no"?>
<svg version="1.1" id="Layer_1" xmlns="http://www.w3.org/2000/svg" xmlns:xlink="http://www.w3.org/1999/xlink" x="0px" y="0px" width="595.276px" height="595.276px" viewBox="0 0 595.276 595.276" enable-background="new 0 0 595.276 595.276" xml:space="preserve">
<path id="color_x5F_7" fill-rule="evenodd" clip-rule="evenodd" fill="#E96257" d="M258.488,250.219
	c-0.57,2.963-3.674,5.229-7.413,5.229c-3.738,0-6.841-2.266-7.412-5.229H258.488z"></path>
<path id="color_x5F_6" fill-rule="evenodd" clip-rule="evenodd" fill="#000404" d="M491.503,407.516h-24.87
	c-0.113-0.191-0.227-0.384-0.339-0.577c-7.169-12.267-10.061-23.938-6.455-26.046c2.347-1.371,6.869,1.642,11.717,7.294
	c0.852-11.047,3.808-19.206,7.322-19.206c3.504,0,6.455,8.122,7.314,19.129c5.485-7.005,10.84-10.964,13.466-9.43
	c3.607,2.107,0.714,13.778-6.454,26.046C492.645,405.682,492.077,406.612,491.503,407.516z"></path>
<path id="color_x5F_5" fill-rule="evenodd" clip-rule="evenodd" fill="#FFD2BB" d="M128.957,385.356
	c-5.214-0.144-12.336-0.836-17.24-3.272c-8.595-4.269-18.104-9.78-11.215-18.474c5.722-7.222,14.149-2.401,16.839-0.562
	c0.585,0.529,0.548,0.375,0,0c-0.702-0.632-1.853-1.881-3.521-4.316c-2.784-4.063,3.765-5.479,11.206-0.822
	c4.224,2.644,9.34,5.462,12.973,7.402L128.957,385.356z M432.302,329.2c3.362-4.707,7.85-11.016,10.951-15.471
	c5.557-7.981,9.757-14.03,11.5-7.687c1.744,6.343-3.611,10.152-3.611,10.152s13.342-8.98,22.097-2.824
	c8.754,6.158,6.147,12.634-2.727,18.136c-5.505,3.413-11.321,6.057-15.143,9.761l0.045-0.049l-1.084-0.851L432.302,329.2z
	 M283.602,244.239l1.024-0.684c1.146,0.806,2.515,1.417,4.156,1.818c-0.21,0.128-0.42,0.254-0.626,0.369
	c0,0,6.851,17.242,12.202,18.034c0.059,0.01,0.122,0.01,0.188,0.001c0.42,4.46,0.563,9.683,0.499,15.748l-20.514,6.636l0.465,4.325
	h-2.725l0.503-4.336l-14.076-4.585c-0.074-3.765-0.038-7.098-0.268-10.15c0,0,5.157-0.316,8.114-0.6
	c4.341-0.417,7.829-3.753,8.44-8.07L283.602,244.239z M262.341,259.114c0.502-0.001,0.922-0.344,1.041-0.806v-0.001l0.012-0.052l0,0
	l0,0l0.002-0.014l0.007-0.039l0,0l0,0l0.002-0.025l0.004-0.028l0,0l0,0l0.003-0.034l0.002-0.021l0,0
	c0-0.018,0.001-0.037,0.001-0.055v-0.397l13.08-8.685l-0.39,2.598c0,0-9.337,13.18-27.71,10.181
	c-2.686-0.438-7.671-4.251-8.777-5.118c-0.428-1.618-0.655-3.315-0.655-5.066v-30.218c11.022,1.961,40.944,0.83,41.943-1.855
	l-4.012,26.815l-13.628,9.049c-0.011-0.021-0.023-0.039-0.037-0.059l0,0l-0.02-0.027l-0.02-0.028l0,0h-0.001l-0.039-0.048
	l-0.004-0.005l0,0c-0.197-0.223-0.484-0.363-0.805-0.363h-6.062c-0.502,0-0.922,0.344-1.041,0.808l0,0l-0.012,0.052l0,0l0,0
	l-0.002,0.014l-0.007,0.039l0,0l0,0l-0.002,0.025l-0.004,0.03l0,0l0,0l-0.002,0.033l-0.002,0.021l0,0
	c-0.001,0.018-0.001,0.037-0.001,0.055v2.15c0,0.5,0.343,0.922,0.806,1.041c0.017,0.005,0.034,0.009,0.053,0.012
	c0.034,0.007,0.07,0.012,0.106,0.016c0.037,0.004,0.073,0.006,0.111,0.006L262.341,259.114L262.341,259.114z M258.488,250.219
	c-0.57,2.961-3.673,5.228-7.413,5.228c-3.738,0-6.841-2.267-7.412-5.228H258.488z"></path>
<path id="color_x5F_4" fill-rule="evenodd" clip-rule="evenodd" fill="#000000" d="M529.252,435.876
	c2.825,0,5.119,2.294,5.119,5.12v10.239c0,2.826-2.294,5.12-5.119,5.12H66.024c-2.825,0-5.119-2.294-5.119-5.12v-10.239
	c0-2.826,2.294-5.12,5.119-5.12H529.252z M283.602,244.239l-2.617,18.505c-0.611,4.317-4.1,7.654-8.44,8.07
	c-9.38,0.901-24.749,1.889-28.328-0.838c-3.704-2.824-4.89-13.44-4.89-13.44s0.011-0.616,0.12-0.616
	c0.026,0,0.139,0.654,0.203,0.704c1.1,0.862,6.059,4.671,8.748,5.11c18.373,2.998,27.71-10.181,27.71-10.181l0.39-2.598
	L283.602,244.239z M266.313,180.873c25.208-2.873,48.819,0.494,48.819,61.145c0,2.525-11.902,22.184-14.773,21.759
	c-5.351-0.792-12.202-18.034-12.202-18.034s0.234-0.128,0.62-0.371c0.607,0.114,1.233,0.173,1.874,0.173
	c5.59,0,10.127-4.537,10.127-10.127c0-4.159-2.513-7.736-6.101-9.294c0.499-7.566,0.913-26.824-6.885-35.045
	C280.987,183.908,272.273,181.32,266.313,180.873z M259.479,182.365c0.005,0.011,0.01,0.022,0.015,0.033
	c0,0,18.751,3.013,24.953,10.991c4.572,5.881,5.462,23.214,5.613,31.918c-5.316,0.306-9.537,4.719-9.537,10.11
	c0,2.594,0.977,4.96,2.582,6.753l-6.209,4.123l4.012-26.815c-1.117,2.998-38.331,4.059-44.963,1.035
	c-0.001,0-0.004-0.001-0.005-0.002c-7.44-3.393-11.508-11.513-9.772-19.503c1.736-7.989,8.807-13.69,16.984-13.69
	c4.058,0,7.233,0,7.233,0C253.046,185.247,256.072,183.53,259.479,182.365z"></path>
<path id="color_x5F_3" fill-rule="evenodd" clip-rule="evenodd" fill="#ff9933" d="M493.15,435.876h-28.342
	c-2.232-1.694-3.864-4.534-4.387-7.875h37.117C497.014,431.343,495.382,434.182,493.15,435.876z M358.863,432.175h-49.047
	l-10.607-76.508H198.022c2.09-17.03,7.069-41.246,18.826-51.873c5.8-6.218,28.916-14.726,35.49-18.955
	c0.026-0.017,0.054-0.033,0.082-0.048l24.774,8.05v49.577h5.18v-49.779l27.194-9.394l0.001-1.129
	c9.93,1.184,32.215,10.12,39.047,15.006c1.693,0.708,2.993,1.684,3.721,3.04l39.241,73.678l36.024-47.023l26.729,13.55l1.084,0.851
	l-0.956,1.034l-1.297,1.624l-0.002-0.006c-5.628,16.159-30.723,82.946-61.999,85.517c-15.085,1.24-25.796-2.272-33.131-6.733
	C358.285,425.892,358.565,429.072,358.863,432.175z M497.718,414.957H460.24v-7.441h37.478V414.957z M175.279,370.467l5.934,42.807
	c-26.456-6.019-52.355-27.698-52.355-27.698l9.654-21.397L175.279,370.467z M326.542,323.779h-24.847v17.837
	c0,4.585,2.783,8.308,6.212,8.308h12.423c3.429,0,6.212-3.722,6.212-8.308L326.542,323.779L326.542,323.779z M262.341,259.114
	h-6.062c-0.594,0-1.076-0.482-1.076-1.076v-2.15c0-0.594,0.482-1.076,1.076-1.076h6.062c0.395,0,0.739,0.213,0.926,0.53
	l19.838-13.172c-1.604-1.792-2.582-4.159-2.582-6.753c0-5.391,4.221-9.804,9.537-10.11c-0.151-8.704-1.041-26.037-5.613-31.918
	c-6.202-7.978-24.953-10.991-24.953-10.991c-1.145-2.4,16.465-3.79,28.296,8.68c7.799,8.222,7.385,27.479,6.885,35.045
	c3.588,1.558,6.101,5.135,6.101,9.294c0,5.59-4.537,10.127-10.127,10.127c-2.255,0-4.34-0.738-6.022-1.987l-21.211,14.083v0.397
	C263.416,258.632,262.934,259.114,262.341,259.114z M187.216,234.385l5.861,12.844c0.654,1.432,0.189,3.126-1.103,4.025
	c-1.292,0.899-3.041,0.745-4.156-0.366c-7.903-7.87-16.57-16.502-16.57-16.502h-40.979c-8.228,0-14.908-7.621-14.908-17.008v-34.015
	c0-9.386,6.68-17.006,14.908-17.006h76.634c8.228,0,14.908,7.621,14.908,17.006v34.015c0,9.386-6.679,17.006-14.908,17.008
	L187.216,234.385L187.216,234.385z M198.701,208.936h-64.37c-0.75,0.001-1.357,0.609-1.357,1.358v2.714
	c0,0.75,0.607,1.357,1.357,1.357h64.37c0.75,0,1.357-0.607,1.357-1.357v-2.714C200.058,209.544,199.451,208.937,198.701,208.936z
	 M199.389,197.595h-53.076c-0.75,0-1.357,0.609-1.357,1.357v2.716c0,0.749,0.607,1.357,1.357,1.357h53.076
	c0.75,0,1.357-0.609,1.357-1.357v-2.716C200.746,198.204,200.138,197.595,199.389,197.595z M198.873,186.064h-63.899
	c-0.75,0-1.357,0.609-1.357,1.357v2.716c0,0.749,0.609,1.357,1.357,1.357h63.899c0.75,0,1.358-0.609,1.358-1.357v-2.716
	C200.232,186.673,199.623,186.064,198.873,186.064z"></path>
<path id="color_x5F_2" fill-rule="evenodd" clip-rule="evenodd" fill="#003399" d="M184.347,435.876H93.998
	C75.418,401.3,43.634,315.065,80.855,214.861c23.923-64.403,105.187-92.393,163.885-66.146
	c16.602,7.424,30.767,18.635,42.005,32.357c-6.356-1.323-13.329-1.009-20.431-0.2c-4.357-0.327-7.242,0.488-6.835,1.494
	c-3.406,1.164-6.433,2.882-9.094,4.953c0,0-3.175,0-7.233,0c-8.177,0-15.248,5.7-16.984,13.69
	c-1.736,7.991,2.332,16.11,9.772,19.503c0.001,0.001,0.004,0.002,0.005,0.002c0.696,0.317,1.728,0.59,3.02,0.82v30.218
	c0,1.502,0.167,2.965,0.486,4.373c-0.001-0.002-0.002-0.004-0.004-0.004c-0.109,0-0.12,0.616-0.12,0.616s1.186,10.616,4.89,13.44
	c2.66,2.027,11.832,2.003,20.219,1.485c0.14,1.891,0.181,3.887,0.208,6.029l-10.359,0.684l0,0l-2.127,6.531l0.264,0.086
	c-0.028,0.015-0.057,0.031-0.082,0.048c-6.574,4.229-29.69,12.737-35.49,18.955c-11.757,10.627-16.736,34.844-18.827,51.873H173.23
	l2.052,14.8l-36.768-6.288L138,365.311c-3.633-1.94-8.749-4.757-12.973-7.402c-7.441-4.657-13.991-3.24-11.206,0.822
	c1.667,2.434,2.818,3.683,3.52,4.316c0.55,0.375,0.586,0.527,0,0c-2.691-1.84-11.117-6.659-16.838,0.562
	c-6.889,8.694,2.62,14.205,11.215,18.474c4.904,2.436,12.026,3.127,17.24,3.272l-0.1,0.22c0,0,25.899,21.679,52.355,27.698
	L184.347,435.876z M464.808,435.876H364.327v-3.702h-5.464c-0.297-3.104-0.578-6.283-0.833-9.521
	c7.335,4.461,18.046,7.973,33.131,6.733c31.249-2.57,56.331-69.247,61.985-85.478c3.451-5.21,10.642-8.233,17.368-12.403
	c8.873-5.502,11.481-11.978,2.727-18.136c-8.755-6.156-22.097,2.824-22.097,2.824s5.355-3.808,3.611-10.152
	c-1.743-6.343-5.944-0.294-11.5,7.687c-3.1,4.455-7.59,10.764-10.951,15.471l-4.7-2.382L391.58,373.84l-39.241-73.678
	c-0.728-1.356-2.028-2.332-3.721-3.04c-6.831-4.887-29.116-13.822-39.047-15.006l-0.001,1.129l0.005-6.478l0,0l-8.513,0.111
	c0-4.95-0.156-9.301-0.514-13.098c3.165-0.375,14.585-19.287,14.585-21.76c0-14.72-1.39-26.066-3.858-34.768
	c24.95,20.369,56.244,30.1,87.88,26.51c18.172-2.082,37.055,0.572,55.142,8.659c58.699,26.248,86.932,99.845,63.009,164.248
	c-3.972,10.694-9.134,20.466-15.251,29.209h-8.904c2.288-1.736,3.944-4.674,4.424-8.122l0.144-2.081v-18.157h-6.215
	c0.574-0.904,1.142-1.834,1.7-2.789c7.168-12.267,10.061-23.939,6.454-26.046c-2.626-1.534-7.981,2.425-13.466,9.43
	c-0.859-11.007-3.811-19.129-7.314-19.129c-3.513,0-6.47,8.159-7.322,19.206c-4.847-5.651-9.37-8.664-11.717-7.294
	c-3.606,2.107-0.714,13.778,6.455,26.046c0.112,0.193,0.226,0.386,0.339,0.577h-6.392v18.157l0.144,2.081
	C460.864,431.203,462.52,434.141,464.808,435.876z M238.041,389.948c4.051,0,7.339,3.288,7.339,7.339s-3.288,7.339-7.339,7.339
	s-7.339-3.288-7.339-7.339S233.99,389.948,238.041,389.948z M206.903,166.356h-76.634c-8.228,0-14.908,7.621-14.908,17.006v34.015
	c0,9.386,6.68,17.008,14.908,17.008h40.979l16.57,16.502c1.115,1.111,2.864,1.265,4.156,0.366s1.757-2.593,1.103-4.025
	l-5.861-12.844h19.688c8.229-0.001,14.908-7.622,14.908-17.008v-34.015C221.811,173.977,215.132,166.356,206.903,166.356z
	 M198.701,208.936c0.75,0,1.357,0.609,1.357,1.358v2.714c0,0.75-0.607,1.357-1.357,1.357h-64.37c-0.75,0-1.357-0.607-1.357-1.357
	v-2.714c0-0.75,0.607-1.358,1.357-1.358H198.701z M199.389,197.595c0.75,0,1.357,0.609,1.357,1.357v2.716
	c0,0.749-0.607,1.357-1.357,1.357h-53.076c-0.75,0-1.357-0.609-1.357-1.357v-2.716c0-0.749,0.607-1.357,1.357-1.357H199.389z
	 M198.873,186.064c0.75,0,1.358,0.609,1.358,1.357v2.716c0,0.749-0.609,1.357-1.358,1.357h-63.899c-0.749,0-1.357-0.609-1.357-1.357
	v-2.716c0-0.749,0.609-1.357,1.357-1.357H198.873z"></path>
<path id="color_x5f_1" fill-rule="evenodd" clip-rule="evenodd" fill="#ffffff" d="M364.327,435.876h-179.98l-11.119-80.209H299.21
	l10.607,76.508h54.512v3.701H364.327z M497.537,428.001H460.42c-0.118-0.754-0.181-1.532-0.181-2.328v-10.716h37.478v10.716
	C497.718,426.47,497.655,427.248,497.537,428.001z M238.041,389.948c4.051,0,7.339,3.288,7.339,7.339s-3.288,7.339-7.339,7.339
	s-7.339-3.288-7.339-7.339S233.99,389.948,238.041,389.948z M320.33,349.924h-12.423c-3.429,0-6.212-3.722-6.212-8.308v-17.837
	h24.847v17.837C326.542,346.201,323.759,349.924,320.33,349.924z M309.573,276.766L309.573,276.766l-0.005,6.478l-27.194,9.394
	v49.779h-5.18V292.84l-25.039-8.136l2.127-6.531l0,0l10.366-0.684l0.084,4.086l14.043,4.574l-0.503,4.336h2.725l-0.465-4.325
	l20.512-6.636l0.007-2.649L309.573,276.766z"></path>
</svg>