<?xml version="1.0" standalone="no"?>
<svg version="1.1" id="Layer_1" xmlns="http://www.w3.org/2000/svg" xmlns:xlink="http://www.w3.org/1999/xlink" x="0px" y="0px" width="595.28px" height="595.28px" viewBox="0 0 595.28 595.28" enable-background="new 0 0 595.28 595.28" xml:space="preserve">
<path id="color_x5F_7" fill="#003399" d="M296.996,195.44l2.612-2.294c-2.463,10.782-0.822,18.477-4.495,28.391
	c-1.412-1.514-2.911-3.405-4.494-5.79c-2.395-3.605-4.157-6.91-5.438-9.942C291.376,201.184,296.996,195.44,296.996,195.44z
	 M325.475,181.913l1.77-5.114l-2.59-0.896c-5.864-2.028-5.233-6.873-3.321-12.647c-1.345,0.974-2.876,1.872-4.632,2.635
	c-6.493,2.823-23.893,0.768-31.701,15.933c-0.942,1.831-1.935,4.214-2.42,7.219c6.532-5.102,12.923-10.179,15.175-12.239
	c5.214-4.769,18.282,1.915,18.282,1.915l-0.045,0.04L325.475,181.913z M351.527,176.897c-2.181-3.824-3.011-7.511-3.157-10.728
	c1.992-4.498,2.167-8.214,2.167-8.214c-0.063-0.668-0.188-1.339-0.36-2.005c0.029-0.069,0.059-0.134,0.085-0.192l0.208,0.03
	c0,0-0.057-0.053-0.154-0.146c0.109-0.236,0.178-0.367,0.178-0.367l-0.272,0.278c-0.063-0.059-0.136-0.126-0.221-0.206
	c-1.538-4.941-6.155-9.447-14.381-10.028c-0.003,0-0.001,0-0.003,0c-0.508-0.124-0.975-0.178-1.387-0.137
	c-9.048,0.888-10.393,9.184-10.592,11.385c-0.03,0.339-0.034,0.539-0.034,0.539s2.116-2.92,5.694-4.009
	c0.521-0.159,1.075-0.276,1.658-0.342c0.083-0.01,0.163-0.026,0.248-0.033c2.613-0.22,6.007,0.419,8.521,1.035
	c-1.184,1.655-2.289,3.88-1.483,5.742c1.49,3.443,0.926,5.251,0.555,6.322c-0.202,0.58-0.362,1.322-0.47,1.888
	c-0.059,0.305-0.1,0.551-0.121,0.694c-0.014,0.081-0.022,0.14-0.022,0.14s0.032-0.05,0.078-0.121
	c0.469-0.718,3.121-4.672,4.059-3.592c1.706,1.964-1.22,9.781-1.22,9.781c-0.221,0.218-0.451,0.424-0.688,0.624l-3.213,9.287
	l0.922,1.598c0,0,9.752,7.341,11.411,12.257l5.178,14.612l4.142,10.487c6.162-5.387,7.857-10.961,8.509-14.83
	C370.197,191.826,355.033,183.047,351.527,176.897z M324.848,228.392c-0.473,1.264-0.657,3.091-0.651,5.208
	c5.557,1.067,11.906,1.134,18.341-1.158c1.111-0.396,2.163-0.803,3.177-1.218c-1.488-5.206-3.547-12.379-5.529-19.192
	C333.189,219.494,325.459,226.759,324.848,228.392z M285.438,245.606h0.182c0.113-0.322,0.243-0.694,0.392-1.116l-0.256,0.106
	C285.756,244.597,285.638,244.944,285.438,245.606z M334.626,163.188c0.278-0.606,0.196-1.241-0.171-1.415
	c-0.373-0.176-0.898,0.174-1.174,0.779c-0.277,0.61-0.199,1.243,0.166,1.417C333.822,164.144,334.344,163.791,334.626,163.188z
	 M326.595,160.408c0.279-0.604,0.2-1.24-0.169-1.414c-0.271-0.126-0.615,0.028-0.892,0.346c-0.019,0.023-0.038,0.046-0.058,0.069
	c-0.083,0.108-0.162,0.228-0.225,0.365c-0.279,0.609-0.2,1.242,0.166,1.419C325.791,161.366,326.315,161.013,326.595,160.408z"></path>
<path id="color_x5F_6" fill="#003399" d="M466.956,233.973v-8.51c0-0.527,0.428-0.955,0.955-0.955s0.954,0.427,0.954,0.955v8.51
	c0,0.526-0.427,0.952-0.954,0.952S466.956,234.499,466.956,233.973z M467.911,260.443c0.527,0,0.954-0.428,0.954-0.954v-8.508
	c0-0.528-0.427-0.955-0.954-0.955s-0.955,0.426-0.955,0.955v8.508C466.956,260.016,467.384,260.443,467.911,260.443z
	 M450.898,243.431h8.509c0.527,0,0.955-0.427,0.955-0.956c0-0.527-0.428-0.954-0.955-0.954h-8.509c-0.526,0-0.954,0.427-0.954,0.954
	C449.944,243.003,450.372,243.431,450.898,243.431z M484.925,241.521h-8.51c-0.527,0-0.953,0.427-0.953,0.954
	c0,0.528,0.426,0.956,0.953,0.956h8.51c0.526,0,0.955-0.427,0.955-0.956C485.88,241.948,485.451,241.521,484.925,241.521z
	 M461.224,237.138c0.372,0.372,0.977,0.372,1.35,0c0.373-0.374,0.373-0.977,0-1.351l-6.018-6.016c-0.371-0.374-0.977-0.374-1.349,0
	c-0.374,0.373-0.374,0.977,0,1.35L461.224,237.138z M474.6,247.814c-0.372-0.373-0.978-0.373-1.351,0
	c-0.373,0.373-0.373,0.977,0,1.35l6.018,6.017c0.373,0.372,0.977,0.372,1.35,0c0.373-0.374,0.373-0.977,0-1.352L474.6,247.814z
	 M461.224,247.814l-6.017,6.016c-0.374,0.375-0.374,0.978,0,1.352c0.372,0.372,0.978,0.372,1.349,0l6.018-6.017
	c0.373-0.373,0.373-0.977,0-1.35C462.2,247.441,461.596,247.441,461.224,247.814z M474.6,237.138l6.017-6.017
	c0.373-0.373,0.373-0.977,0-1.35c-0.373-0.374-0.977-0.374-1.35,0l-6.018,6.016c-0.373,0.374-0.373,0.977,0,1.351
	C473.622,237.51,474.228,237.51,474.6,237.138z M407.808,174.911c0.527,0,0.954-0.426,0.954-0.952v-8.51
	c0-0.527-0.427-0.955-0.954-0.955s-0.955,0.427-0.955,0.955v8.51C406.853,174.485,407.28,174.911,407.808,174.911z M407.808,200.429
	c0.527,0,0.954-0.428,0.954-0.954v-8.508c0-0.528-0.427-0.955-0.954-0.955s-0.955,0.426-0.955,0.955v8.508
	C406.853,200.001,407.28,200.429,407.808,200.429z M390.795,183.417h8.509c0.527,0,0.955-0.427,0.955-0.956
	c0-0.527-0.428-0.954-0.955-0.954h-8.509c-0.526,0-0.954,0.427-0.954,0.954C389.841,182.989,390.269,183.417,390.795,183.417z
	 M415.358,182.461c0,0.528,0.426,0.956,0.953,0.956h8.51c0.526,0,0.955-0.427,0.955-0.956c0-0.527-0.429-0.954-0.955-0.954h-8.51
	C415.784,181.507,415.358,181.934,415.358,182.461z M401.12,177.124c0.372,0.372,0.977,0.372,1.35,0
	c0.373-0.374,0.373-0.977,0-1.351l-6.018-6.016c-0.371-0.374-0.977-0.374-1.349,0c-0.374,0.373-0.374,0.977,0,1.35L401.12,177.124z
	 M419.163,195.167c0.373,0.372,0.977,0.372,1.35,0c0.373-0.374,0.373-0.977,0-1.352l-6.017-6.016c-0.372-0.373-0.978-0.373-1.351,0
	c-0.373,0.373-0.373,0.977,0,1.35L419.163,195.167z M401.12,187.8l-6.017,6.016c-0.374,0.375-0.374,0.978,0,1.352
	c0.372,0.372,0.978,0.372,1.349,0l6.018-6.017c0.373-0.373,0.373-0.977,0-1.35C402.097,187.427,401.492,187.427,401.12,187.8z
	 M414.496,177.124l6.017-6.017c0.373-0.373,0.373-0.977,0-1.35c-0.373-0.374-0.977-0.374-1.35,0l-6.018,6.016
	c-0.373,0.374-0.373,0.977,0,1.351C413.519,177.496,414.124,177.496,414.496,177.124z"></path>
<path id="color_x5F_5" fill="#FFD2BB" d="M338.262,168.424c-0.046,0.07-0.078,0.121-0.078,0.121s0.009-0.059,0.022-0.14
	c0.021-0.143,0.063-0.389,0.121-0.694c0.107-0.566,0.268-1.308,0.47-1.888c0.371-1.071,0.936-2.879-0.555-6.322
	c-0.806-1.861,0.3-4.086,1.483-5.742c-2.515-0.616-5.908-1.255-8.521-1.035c-0.085,0.007-0.165,0.023-0.248,0.033
	c-0.583,0.065-1.137,0.183-1.658,0.342c-3.578,1.088-5.694,4.009-5.694,4.009s0.004-0.199,0.034-0.539l-2.005,5.795
	c-0.104,0.3-0.202,0.596-0.3,0.891c-1.912,5.774-2.543,10.619,3.321,12.647l2.59,0.896l-1.77,5.114l0.001,0l4.625,1.539h0.001
	l6.698,2.229l1.322,0.44l-0.922-1.598l3.213-9.287c0.236-0.199,0.467-0.405,0.688-0.624c0,0,2.926-7.817,1.22-9.781
	C341.383,163.752,338.73,167.706,338.262,168.424z M333.281,162.552c0.275-0.605,0.801-0.955,1.174-0.779
	c0.367,0.174,0.449,0.809,0.171,1.415c-0.282,0.603-0.804,0.956-1.179,0.781C333.082,163.795,333.004,163.163,333.281,162.552z
	 M326.595,160.408c-0.279,0.605-0.804,0.958-1.177,0.785c-0.366-0.177-0.445-0.81-0.166-1.419c0.063-0.137,0.142-0.257,0.225-0.365
	c0.02-0.025,0.038-0.046,0.058-0.069c0.276-0.318,0.621-0.472,0.892-0.346C326.795,159.167,326.874,159.803,326.595,160.408z
	 M277.108,193.299c0.814,2.006,1.33,3.733,1.298,4.846c-0.197,6.754-7.761,9.958-10.714,8.687c-0.347-0.149-0.645-0.346-0.845-0.621
	c-4.024-5.539-6.517-16.554-4.247-26.873c-3.653-0.57-6.562-3.135-6.987-6.542c-0.531-4.248,2.997-8.185,7.882-8.795
	c4.884-0.611,9.273,2.337,9.803,6.584c0.383,3.051-1.337,5.936-4.143,7.548C271.055,181.349,275.044,188.218,277.108,193.299z
	 M386.751,221.382c-1.564,0.195-3.075,0.022-4.428-0.438c-0.004,0.001-0.008,0.002-0.013,0.003
	c-2.699,3.541-8.373,8.141-8.373,8.141s-12.313,11.849-15.975,13.22c-4.286,1.606-8.315-0.907-10.079-3.503
	c-0.006-0.007-0.011-0.015-0.016-0.022c-0.732-1.086-1.067-2.178-0.852-2.995c0.041-0.156,0.092-0.307,0.174-0.44
	c1.59-2.565,6.549-6.485,12.374-10.065c6.042-3.714,13.013-7.056,18.126-8.142c-0.379-0.72-0.639-1.505-0.744-2.343
	c-0.531-4.248,2.997-8.185,7.882-8.795c4.884-0.611,9.273,2.337,9.803,6.584C395.163,216.834,391.635,220.771,386.751,221.382z"></path>
<path id="color_x5F_4" fill="#ff9933" d="M359.564,225.282c-5.825,3.58-10.784,7.5-12.374,10.065
	c-0.082,0.133-0.133,0.285-0.174,0.44c-0.35-1.228-0.793-2.78-1.303-4.564c-1.488-5.206-3.547-12.379-5.529-19.192
	c-6.995,7.462-14.726,14.728-15.337,16.36c-0.473,1.264-0.657,3.091-0.651,5.208c0.008,3.594,0.566,8.027,1.226,12.007h-0.583
	H285.62c0.113-0.322,0.243-0.694,0.392-1.116c1.614-4.585,5.2-14.554,7.35-18.898c0.692-1.399,1.267-2.746,1.752-4.055
	c3.673-9.914,2.032-17.609,4.495-28.391l-2.612,2.294c0,0-5.62,5.744-11.814,10.366c-4.552,3.396-9.414,6.187-12.588,5.641
	c-1.627-0.28-3.461-2.471-4.901-4.615c2.953,1.271,10.517-1.933,10.714-8.687c0.032-1.113-0.483-2.84-1.298-4.846
	c1.775-1.377,3.628-2.816,5.472-4.256c6.532-5.102,12.923-10.179,15.175-12.239c5.214-4.769,18.282,1.915,18.282,1.915l-0.045,0.04
	l9.482,3.155l0.001,0l4.625,1.539h0.001l6.698,2.229l1.322,0.44c0,0,9.752,7.341,11.411,12.257l5.178,14.612l4.142,10.487
	L359.564,225.282z M347.875,238.807l0.009-0.002c-0.006-0.007-0.011-0.015-0.016-0.022
	C347.872,238.796,347.875,238.807,347.875,238.807z"></path>
<path id="color_x5F_3" fill="#ff9933" d="M198.178,245.606h-10.359c0.01,0.124,0.014,0.25,0.022,0.375
	c-8.455-9.421-16.504-19.185-24.226-29.206c0.464-0.132,0.857-0.542,0.756-1.152c-1.071-6.564-2.898-13.011-3.306-19.676
	c-0.077-1.291-2.109-1.395-2.027-0.088c0.395,6.465,2.04,12.714,3.153,19.071c-10.021-13.11-19.493-26.645-28.511-40.471
	c-0.707-1.084-2.516-0.167-1.804,0.927c10.675,16.367,21.972,32.351,34.077,47.694c-3.069-1.127-6.097-2.311-8.799-4.199
	c-1.079-0.747-2.153,0.974-1.081,1.719c3.648,2.542,7.875,3.871,12.003,5.421c0.092,0.037,0.174,0.031,0.262,0.041
	c5.789,7.231,11.742,14.333,17.935,21.235c-9.734,0.182-26.536-2.254-36.011-19.435c-13.893-25.197-8.789-22.984-21.853-37.445
	c-13.066-14.459-25.039-28.773-15.665-37.361c9.368-8.588,26.427,5.585,34.698,22.139c8.272,16.551,23.179,19.479,36.081,32.526
	c13.66,13.817,13.314,27.156,11.828,34.034C196.312,243.026,197.249,244.313,198.178,245.606z M241.173,227.521
	c-9.176-27.265-11.003-22.003-12.824-41.408c-1.825-19.403-4.284-37.899-16.947-36.799c-12.664,1.107-13.746,23.249-7.139,40.536
	c6.609,17.288-1.311,30.244-0.414,48.577c0.126,2.578,0.416,4.965,0.833,7.18h21.78c-0.757-5.256-1.573-10.504-2.479-15.736
	c-0.413,0.249-0.984,0.266-1.364-0.221c-4.115-5.225-7.631-10.93-12.27-15.733c-0.896-0.934,0.398-2.495,1.303-1.553
	c4.498,4.66,7.996,10.101,11.93,15.212c-2.895-16.246-6.465-32.375-10.558-48.366c-0.323-1.251,1.572-1.969,1.903-0.703
	c4.846,18.931,8.993,38.059,12.118,57.35c1.24-3.02,2.409-6.053,2.851-9.324c0.176-1.297,2.17-0.928,2.001,0.365
	c-0.595,4.415-2.478,8.421-4.118,12.512c-0.039,0.094-0.097,0.148-0.15,0.221c0.309,1.99,0.602,3.982,0.889,5.976h14.149
	C243.62,240.234,243.411,234.171,241.173,227.521z M147.74,252.523c-15.059-7.242-29.73-13.615-34.522-3.828
	c-4.788,9.787,10.999,20.382,26.617,23.17c9.271,1.657,15.161,6.404,21.315,11.544c5.169-1.366,9.881-3.85,13.863-7.18
	c-4.952,0.502-9.946,0.692-14.813,1.81c-1.08,0.247-1.656-1.398-0.562-1.646c5.415-1.241,10.952-1.406,16.445-2.033
	c-13.208-5.062-26.636-9.569-40.191-13.633c-1.066-0.32-0.747-2.027,0.321-1.709c14.143,4.238,28.15,8.946,41.916,14.268
	c0.672-0.713,1.316-1.454,1.93-2.22c-0.612-0.633-1.248-1.247-1.946-1.806c-0.872-0.703,0.28-2.005,1.155-1.306
	c0.661,0.531,1.275,1.104,1.863,1.702c1.74-2.409,3.188-5.04,4.295-7.845c-0.523-0.141-1.056-0.273-1.601-0.394
	C159.737,256.098,162.799,259.766,147.74,252.523z"></path>
<path id="color_x5F_2" fill="#ff9933" d="M456.366,291.966c-1.59,0.269-3.229,0.405-4.868,0.405
	c-16.109,0-29.216-13.102-29.216-29.207c0-0.81,0.033-1.63,0.099-2.438l0.131-1.621h-95.048h-44.938h-45.109h-7.139h-2.04h-18.479
	h-2.31h-4.286H195.3l0.129,1.619c0.064,0.805,0.097,1.626,0.097,2.44c0,1.096-0.065,2.176-0.185,3.241
	c-0.49,4.418-1.97,8.541-4.212,12.144c-0.313,0.503-0.644,0.995-0.986,1.477c-4.219,5.943-10.598,10.252-17.988,11.758
	c-1.889,0.385-3.843,0.588-5.844,0.588c-1.64,0-3.278-0.136-4.868-0.405l-1.75-0.296v109.326l1.751-0.296
	c1.589-0.269,3.227-0.406,4.867-0.406c16.109,0,29.215,13.106,29.215,29.216c0,1.641-0.136,3.279-0.405,4.868l-0.295,1.75h228.16
	l-0.297-1.751c-0.27-1.59-0.406-3.228-0.406-4.867c0-16.11,13.106-29.216,29.216-29.216c1.641,0,3.278,0.137,4.867,0.406
	l1.751,0.296V291.67L456.366,291.966z M455.116,397.496c-1.195-0.134-2.406-0.202-3.618-0.202
	c-17.764,0-32.216,14.452-32.216,32.216c0,1.211,0.067,2.422,0.202,3.618h-221.16c0.134-1.195,0.201-2.406,0.201-3.618
	c0-17.764-14.451-32.216-32.215-32.216c-1.212,0-2.423,0.068-3.618,0.202V295.169c1.195,0.134,2.406,0.202,3.618,0.202
	c3.323,0,6.531-0.506,9.55-1.445c7.044-2.19,13.058-6.737,17.117-12.713c0.328-0.482,0.642-0.975,0.943-1.476
	c2.031-3.37,3.457-7.141,4.141-11.162c0.3-1.76,0.464-3.566,0.464-5.411c0-0.353-0.006-0.706-0.017-1.059h6.673h4.301h2.353h16.722
	h2.058h4.793h46.702h45.337h91.853c-0.011,0.354-0.017,0.708-0.017,1.059c0,17.759,14.452,32.207,32.216,32.207
	c1.212,0,2.423-0.068,3.618-0.202V397.496z M270.627,255.62v-8c0-0.829,0.672-1.5,1.5-1.5s1.5,0.671,1.5,1.5v8
	c0,0.829-0.672,1.5-1.5,1.5S270.627,256.449,270.627,255.62z M273.627,439.62v8c0,0.829-0.672,1.5-1.5,1.5s-1.5-0.671-1.5-1.5v-8
	c0-0.829,0.672-1.5,1.5-1.5S273.627,438.792,273.627,439.62z M273.627,391.62v8c0,0.829-0.672,1.5-1.5,1.5s-1.5-0.671-1.5-1.5v-8
	c0-0.829,0.672-1.5,1.5-1.5S273.627,390.792,273.627,391.62z M273.627,263.62v8c0,0.829-0.672,1.5-1.5,1.5s-1.5-0.671-1.5-1.5v-8
	c0-0.829,0.672-1.5,1.5-1.5S273.627,262.792,273.627,263.62z M273.627,311.62v8c0,0.829-0.672,1.5-1.5,1.5s-1.5-0.671-1.5-1.5v-8
	c0-0.829,0.672-1.5,1.5-1.5S273.627,310.792,273.627,311.62z M273.627,279.62v8c0,0.829-0.672,1.5-1.5,1.5s-1.5-0.671-1.5-1.5v-8
	c0-0.829,0.672-1.5,1.5-1.5S273.627,278.792,273.627,279.62z M273.627,295.62v8c0,0.829-0.672,1.5-1.5,1.5s-1.5-0.671-1.5-1.5v-8
	c0-0.829,0.672-1.5,1.5-1.5S273.627,294.792,273.627,295.62z M273.627,359.62v8c0,0.829-0.672,1.5-1.5,1.5s-1.5-0.671-1.5-1.5v-8
	c0-0.829,0.672-1.5,1.5-1.5S273.627,358.792,273.627,359.62z M273.627,327.62v8c0,0.829-0.672,1.5-1.5,1.5s-1.5-0.671-1.5-1.5v-8
	c0-0.829,0.672-1.5,1.5-1.5S273.627,326.792,273.627,327.62z M273.627,375.62v8c0,0.829-0.672,1.5-1.5,1.5s-1.5-0.671-1.5-1.5v-8
	c0-0.829,0.672-1.5,1.5-1.5S273.627,374.792,273.627,375.62z M273.627,343.62v8c0,0.829-0.672,1.5-1.5,1.5s-1.5-0.671-1.5-1.5v-8
	c0-0.829,0.672-1.5,1.5-1.5S273.627,342.792,273.627,343.62z M273.627,423.62v8c0,0.829-0.672,1.5-1.5,1.5s-1.5-0.671-1.5-1.5v-8
	c0-0.829,0.672-1.5,1.5-1.5S273.627,422.792,273.627,423.62z M273.627,407.62v8c0,0.829-0.672,1.5-1.5,1.5s-1.5-0.671-1.5-1.5v-8
	c0-0.829,0.672-1.5,1.5-1.5S273.627,406.792,273.627,407.62z M341.453,325.617h73.167v10.163h-67.532h-19.511h-26.48h-0.472v-8.013
	v-2.15h18.37H341.453z M356.284,353.879h58.336v20.95h-48.498h-16.658h-48.839v-20.95h42.235h5.563h6.513H356.284z M188.131,340.879
	h64.498v20.95h-64.498V340.879z"></path>
<path id="color_x5F_1" fill="#003399" d="M469.961,284.606c-19.89,0-36.01-16.12-36.01-36c0-1.01,0.04-2.01,0.12-3h-84.123h-24.526
	h-0.583H285.62h-0.182h-13.497h-29.275h-14.149h-2.055h-21.78h-6.504h-10.359c0.01,0.124,0.014,0.25,0.022,0.375
	c0.062,0.868,0.098,1.742,0.098,2.625c0,4.664-0.896,9.116-2.512,13.207c-1.107,2.805-2.555,5.436-4.295,7.845
	c-0.347,0.479-0.703,0.949-1.072,1.41c-0.613,0.767-1.258,1.507-1.93,2.22c-0.981,1.04-2.02,2.025-3.116,2.942
	c-3.982,3.33-8.694,5.814-13.863,7.18c-2.943,0.777-6.033,1.196-9.222,1.196c-2.051,0-4.051-0.17-6-0.5v124.01
	c1.949-0.33,3.949-0.5,6-0.5c19.89,0,36.01,16.12,36.01,36.01c0,2.05-0.17,4.05-0.5,6h84.503h78.007h84.503
	c-0.33-1.95-0.5-3.95-0.5-6c0-19.89,16.12-36.01,36.01-36.01c2.051,0,4.051,0.17,6,0.5v-124.01
	C474.012,284.437,472.012,284.606,469.961,284.606z M270.627,247.62c0-0.829,0.672-1.5,1.5-1.5s1.5,0.671,1.5,1.5v8
	c0,0.829-0.672,1.5-1.5,1.5s-1.5-0.671-1.5-1.5V247.62z M273.627,447.62c0,0.829-0.672,1.5-1.5,1.5s-1.5-0.671-1.5-1.5v-8
	c0-0.829,0.672-1.5,1.5-1.5s1.5,0.671,1.5,1.5V447.62z M458.116,400.996l-1.751-0.296c-1.589-0.269-3.227-0.406-4.867-0.406
	c-16.109,0-29.216,13.106-29.216,29.216c0,1.639,0.137,3.276,0.406,4.867l0.297,1.751h-228.16l0.295-1.75
	c0.27-1.589,0.405-3.227,0.405-4.868c0-16.11-13.105-29.216-29.215-29.216c-1.641,0-3.278,0.137-4.867,0.406l-1.751,0.296V291.67
	l1.75,0.296c1.59,0.269,3.229,0.405,4.868,0.405c2.001,0,3.955-0.203,5.844-0.588c7.391-1.506,13.77-5.814,17.988-11.758
	c0.343-0.482,0.673-0.973,0.986-1.477c2.242-3.603,3.722-7.725,4.212-12.144c0.119-1.065,0.185-2.145,0.185-3.241
	c0-0.814-0.032-1.635-0.097-2.44l-0.129-1.619h7.863h4.286h2.31h18.479h2.04h7.139h45.109h44.938h95.048l-0.131,1.621
	c-0.065,0.808-0.099,1.628-0.099,2.438c0,16.104,13.106,29.207,29.216,29.207c1.64,0,3.278-0.136,4.868-0.405l1.75-0.296V400.996z
	 M419.282,263.165c0-0.352,0.006-0.705,0.017-1.059h-91.853h-45.337h-46.702h-4.793h-2.058h-16.722h-2.353h-4.301h-6.673
	c0.011,0.353,0.017,0.707,0.017,1.059c0,1.844-0.164,3.65-0.464,5.411c-0.684,4.021-2.109,7.792-4.141,11.162
	c-0.302,0.5-0.615,0.993-0.943,1.476c-4.06,5.977-10.073,10.523-17.117,12.713c-3.019,0.938-6.227,1.445-9.55,1.445
	c-1.212,0-2.423-0.068-3.618-0.202v102.326c1.195-0.134,2.406-0.202,3.618-0.202c17.764,0,32.215,14.452,32.215,32.216
	c0,1.212-0.067,2.423-0.201,3.618h221.16c-0.135-1.196-0.202-2.407-0.202-3.618c0-17.764,14.452-32.216,32.216-32.216
	c1.212,0,2.423,0.068,3.618,0.202V295.169c-1.195,0.134-2.406,0.202-3.618,0.202C433.734,295.371,419.282,280.923,419.282,263.165z
	 M252.629,361.829h-64.498v-20.95h64.498V361.829z M273.627,431.62c0,0.829-0.672,1.5-1.5,1.5s-1.5-0.671-1.5-1.5v-8
	c0-0.829,0.672-1.5,1.5-1.5s1.5,0.671,1.5,1.5V431.62z M273.627,415.62c0,0.829-0.672,1.5-1.5,1.5s-1.5-0.671-1.5-1.5v-8
	c0-0.829,0.672-1.5,1.5-1.5s1.5,0.671,1.5,1.5V415.62z M273.627,399.62c0,0.829-0.672,1.5-1.5,1.5s-1.5-0.671-1.5-1.5v-8
	c0-0.829,0.672-1.5,1.5-1.5s1.5,0.671,1.5,1.5V399.62z M273.627,383.62c0,0.829-0.672,1.5-1.5,1.5s-1.5-0.671-1.5-1.5v-8
	c0-0.829,0.672-1.5,1.5-1.5s1.5,0.671,1.5,1.5V383.62z M273.627,367.62c0,0.829-0.672,1.5-1.5,1.5s-1.5-0.671-1.5-1.5v-8
	c0-0.829,0.672-1.5,1.5-1.5s1.5,0.671,1.5,1.5V367.62z M273.627,351.62c0,0.829-0.672,1.5-1.5,1.5s-1.5-0.671-1.5-1.5v-8
	c0-0.829,0.672-1.5,1.5-1.5s1.5,0.671,1.5,1.5V351.62z M273.627,335.62c0,0.829-0.672,1.5-1.5,1.5s-1.5-0.671-1.5-1.5v-8
	c0-0.829,0.672-1.5,1.5-1.5s1.5,0.671,1.5,1.5V335.62z M273.627,319.62c0,0.829-0.672,1.5-1.5,1.5s-1.5-0.671-1.5-1.5v-8
	c0-0.829,0.672-1.5,1.5-1.5s1.5,0.671,1.5,1.5V319.62z M273.627,303.62c0,0.829-0.672,1.5-1.5,1.5s-1.5-0.671-1.5-1.5v-8
	c0-0.829,0.672-1.5,1.5-1.5s1.5,0.671,1.5,1.5V303.62z M273.627,287.62c0,0.829-0.672,1.5-1.5,1.5s-1.5-0.671-1.5-1.5v-8
	c0-0.829,0.672-1.5,1.5-1.5s1.5,0.671,1.5,1.5V287.62z M273.627,271.62c0,0.829-0.672,1.5-1.5,1.5s-1.5-0.671-1.5-1.5v-8
	c0-0.829,0.672-1.5,1.5-1.5s1.5,0.671,1.5,1.5V271.62z M414.62,374.829h-48.498h-16.658h-48.839v-20.95h42.235h5.563h6.513h1.349
	h58.336V374.829z M414.62,335.78h-67.532h-19.511h-26.48h-0.472v-8.013v-2.15h18.37h22.458h73.167V335.78z"></path>
</svg>