<?xml version="1.0" standalone="no"?>
<svg version="1.1" id="Layer_1" xmlns="http://www.w3.org/2000/svg" xmlns:xlink="http://www.w3.org/1999/xlink" x="0px" y="0px" width="595.28px" height="595.28px" viewBox="0 0 595.28 595.28" enable-background="new 0 0 595.28 595.28" xml:space="preserve">
<path id="color_x5F_8" fill="#fec83d" d="M395.9,422.629c0,7.456-6.044,13.5-13.499,13.5c-2.776,0-5.354-0.84-7.5-2.276
	c3.617-2.422,6-6.544,6-11.224s-2.383-8.802-6-11.224c2.146-1.436,4.724-2.276,7.5-2.276
	C389.856,409.13,395.9,415.174,395.9,422.629z"></path>
<path id="color_x5F_7" fill="#ED1C24" d="M374.901,433.853c-2.146,1.436-4.724,2.276-7.499,2.276c-7.456,0-13.5-6.044-13.5-13.5
	s6.044-13.5,13.5-13.5c2.775,0,5.354,0.84,7.499,2.276c-3.617,2.422-6,6.544-6,11.224S371.284,431.431,374.901,433.853z"></path>
<path id="color_x5F_6" fill="#003399" d="M369.398,282.378c-0.541-0.976-1.068-1.753-1.563-2.248
	c-1.768-1.768-8.602,1.76-7.861,7.559c0.043,0.338,0.163,0.778,0.338,1.288c-0.172,0.135-0.34,0.272-0.498,0.419
	c-0.021-0.04-0.03-0.06-0.03-0.06s-0.972-2.331-2.344-5.723c-1.521-3.763-3.536-8.833-5.267-13.487
	c-2.59,6.43-4.93,13.24-5.07,17.08c-0.093,2.561,0.928,6.87,2.249,11.282c0.02,0.063,0.038,0.127,0.057,0.19
	c0.589,1.956,1.234,3.924,1.867,5.768c1.776,5.182,3.447,9.36,3.447,9.36h-2.854h-8.521h-0.534H332.5h-18.144h-0.192
	c0,0,0.14-0.507,0.366-1.363c0.964-3.647,3.535-13.778,3.971-19.615c0.048-0.642,0.072-1.238,0.063-1.761
	c-0.07-4.24-1.881-9.51-3.78-13.92c-1.769,3.817-3.673,7.149-5.561,9.486c1.337-2.702,1.747-6.361-0.452-9.521
	c-0.826-1.186-3.184-3.094-5.946-5.104c0.506-3.129,0.979-5.402,0.979-5.402s3.4-14.37,5.721-18.05c2.75-4.38,7.859-6.2,10.96-5.45
	l0.02-0.18l2.699,0.023l5.321,0.046l4.394,11.91l2.285-2.61l6.548-7.479l0.702-0.802l0.771-0.88l7.33,0.07
	c0.784,0,1.54,0.143,2.261,0.393c1.968,0.681,3.658,2.22,4.8,4.298C361.202,252.462,367.541,269.97,369.398,282.378z
	 M374.901,411.406c-3.617,2.422-6,6.544-6,11.224s2.383,8.802,6,11.224c3.617-2.422,6-6.544,6-11.224
	S378.519,413.828,374.901,411.406z"></path>
<path id="color_x5F_5" fill="#FFD2BB" d="M342.453,229.783c0.056-0.094,0.108-0.19,0.162-0.286
	c-0.014-0.665-0.035-1.352-0.064-2.041c-0.025-0.58-0.058-1.159-0.098-1.729c-0.041-0.573-0.09-1.134-0.148-1.673
	c-0.181-1.669-0.455-3.116-0.865-3.976c-0.171-0.357-0.365-0.616-0.586-0.744c-0.932-0.537-1.852,1.938-2.339,3.553
	c-0.161,0.533-0.272,0.96-0.323,1.166c-0.021,0.082-0.035,0.14-0.035,0.14s-0.011-0.059-0.025-0.14
	c-0.059-0.334-0.211-1.261-0.264-2.11c-0.011-0.18-0.019-0.356-0.019-0.521c0-1.134-0.058-3.026-2.589-5.791
	c-0.104-0.114-0.184-0.241-0.27-0.365c-0.011,0-0.021,0-0.032,0c-1.331-0.021-2.739-0.041-4.133-0.056
	c-0.991-0.01-1.974-0.019-2.911-0.022c-0.568-0.002-1.121-5.004-1.649-5.003c-0.47,0-0.921,5.002-1.348,5.005
	c-2.271,0.018-3.833,0.08-3.833,0.216c0,0.707-0.33,6.016-0.33,6.016s-0.1-0.195-0.249-0.541v2.883
	c0,4.481,0.358,8.376,2.698,10.375c1.065,0.91,2.541,1.427,4.58,1.427h2.739v7.448l-1.998-0.019l4.394,11.91l2.285-2.61l6.548-7.479
	l0.702-0.802l0.771-0.88l-0.771-0.007V229.783z M332.424,219.015c0.404,0.044,0.688,0.618,0.621,1.282
	c-0.066,0.662-0.443,1.166-0.854,1.122c-0.403-0.044-0.686-0.617-0.62-1.283C331.633,219.474,332.013,218.971,332.424,219.015z
	 M323.076,220.136c0.063-0.662,0.443-1.165,0.854-1.121c0.405,0.044,0.688,0.618,0.622,1.282c-0.067,0.662-0.445,1.166-0.855,1.122
	C323.294,221.375,323.012,220.802,323.076,220.136z M308.771,277.112c2.199,3.159,1.789,6.818,0.452,9.521
	c-1.284,2.597-3.425,4.309-4.935,3.835c-0.791-0.249-1.732-0.705-2.779-1.322c-2.381-1.403-5.319-3.666-8.365-6.389
	c-6.987-6.245-14.523-14.894-17.094-21.064c-1.47-0.519-3.12-1.102-3.125-1.101c-0.072,0.013-0.139,0.028-0.215,0.039
	c-0.509,0.074-1.097,0.056-1.734-0.031c-1.862-0.255-4.643-2.636-5.291-4.629c-0.792-2.439,1.95-5.386,2.104-5.553
	c0.221-0.237,0.983-0.428,0.754-0.755c-1.004-1.429-5.314-3.569-4.334-5.083c0.715-1.105,3.537,1.744,5.897,3.538
	c0.211-0.103,0.417-0.146,0.614-0.11c0.1,0.019,1.542-0.042,1.65-0.006c0.557,0.183,5.124,0.964,5.086,5.544
	c0.041,0.046,0.078,0.091,0.118,0.138c0.069-0.027,0.128-0.05,0.17-0.067c0.037-0.016,0.815,1.601,1.679,3.378
	c4.504,1.912,10.939,6.706,10.939,6.706s1.109,0.688,2.781,1.761c2.211,1.419,5.408,3.513,8.365,5.606
	c0.445,0.316,0.886,0.63,1.315,0.943C305.588,274.018,307.945,275.926,308.771,277.112z M380.082,317.239c0,2.761-2.238,5-5,5
	s-5-2.239-5-5c0-0.572,0.116-1.113,0.293-1.625c0.324-0.937,0.911-1.742,1.684-2.333c-2.145-4.058-4.264-9.79-4.264-9.79
	s-0.604-1.021-1.475-2.553c-1.868-3.286-4.967-8.928-6.008-11.962c-0.175-0.509-0.295-0.949-0.338-1.288
	c-0.74-5.798,6.094-9.327,7.861-7.559c0.494,0.495,1.021,1.271,1.563,2.248c0.063,0.114,0.127,0.221,0.19,0.341
	c3.521,6.621,7.569,21.785,7.245,29.853c1.388,0.521,2.469,1.637,2.955,3.042C379.966,316.126,380.082,316.667,380.082,317.239z"></path>
<path id="color_x5F_4" fill="#ff9933" d="M369.589,282.719c-0.063-0.12-0.127-0.228-0.19-0.341
	c-1.857-12.408-8.196-29.916-11.784-34.482c-1.142-2.078-2.832-3.617-4.8-4.298c-0.721-0.25-1.477-0.393-2.261-0.393l-7.33-0.07
	l-0.771-0.007v-13.346c0.056-0.094,0.108-0.19,0.162-0.286c-0.014-0.665-0.035-1.352-0.064-2.041
	c-0.025-0.58-0.058-1.159-0.098-1.729c-0.041-0.573-0.09-1.134-0.148-1.673c-0.181-1.669-0.455-3.116-0.865-3.976
	c-0.171-0.357-0.365-0.616-0.586-0.744c-0.932-0.537-1.852,1.938-2.339,3.553c-0.161,0.533-0.272,0.96-0.323,1.166
	c-0.021,0.082-0.035,0.14-0.035,0.14s-0.011-0.059-0.025-0.14c-0.059-0.334-0.211-1.261-0.264-2.11
	c-0.011-0.18-0.019-0.356-0.019-0.521c0-1.134-0.058-3.026-2.589-5.791c-0.104-0.114-0.184-0.241-0.27-0.365
	c-0.011,0-0.021,0-0.032,0c-1.331-0.021-2.739-0.041-4.133-0.056c-0.991-0.01-1.974-0.019-2.911-0.022
	c-0.568-0.002-1.121-5.004-1.649-5.003c-0.47,0-0.921,5.002-1.348,5.005c-2.271,0.018-3.833,0.08-3.833,0.216
	c0,0.707-0.33,6.016-0.33,6.016s-0.1-0.195-0.249-0.541c-0.964-2.224-4.067-10.875,3.079-16.476c0.8-0.627,2.08-0.91,3.593-0.969
	c-0.066-0.018-0.103-0.029-0.093-0.031c3.787-0.487,17-2.5,19.284,6.746c0,0,0.985,3.378,0.662,8.066
	c0.782,3.083,2.552,6.941,6.424,10.753c0.94,0.926,1.819,1.881,2.666,2.853c6.64,7.615,10.459,16.685,12.252,27.941
	C369.455,266.565,369.813,274.151,369.589,282.719z M359.814,289.396c-0.021-0.04-0.03-0.06-0.03-0.06s-0.972-2.331-2.344-5.723
	c-1.521-3.763-3.536-8.833-5.267-13.487c-2.59,6.43-4.93,13.24-5.07,17.08c-0.093,2.561,0.928,6.87,2.249,11.282
	c0.02,0.063,0.038,0.127,0.057,0.19c0.589,1.956,1.234,3.924,1.867,5.768c1.776,5.182,3.447,9.36,3.447,9.36h-2.854h-8.521h-0.534
	H332.5h-18.144c-0.582,4.731-0.965,9.856-0.941,15.1c0.075,17.076,9.422,46.921,9.422,46.921l0.428,0.466l9.063,63.685
	l-15.198,8.979h19.772l-2.472-10.063c0.252-1.424,0.528-3.009,0.821-4.717V327.832c0-5.641,3.827-10.375,9.022-11.782
	c1.021-0.276,2.088-0.437,3.195-0.437h4.693h3.739c5.219-4.288,8.437-9.566,10.418-14.675c-1.868-3.286-4.967-8.928-6.008-11.962
	C360.141,289.111,359.973,289.249,359.814,289.396z M323.203,242.949l5.321,0.046l1.998,0.019v-7.448h-2.739
	c-2.039,0-3.515-0.517-4.58-1.427V242.949z M314.53,312.442c0.964-3.647,3.535-13.778,3.971-19.615
	C317.412,296.779,315.667,303.895,314.53,312.442z M333.045,220.297c0.066-0.665-0.217-1.238-0.621-1.282
	c-0.411-0.044-0.791,0.459-0.854,1.121c-0.065,0.666,0.217,1.239,0.62,1.283C332.602,221.463,332.979,220.958,333.045,220.297z
	 M323.931,219.015c-0.411-0.044-0.791,0.459-0.854,1.121c-0.064,0.666,0.218,1.239,0.621,1.283c0.41,0.044,0.788-0.46,0.855-1.122
	C324.619,219.632,324.336,219.059,323.931,219.015z"></path>
<path id="color_x5F_3" fill="#ff9933" d="M245.039,450.598c0.121,0.426,0.241,0.852,0.335,1.288h-57.718h-57.721H72.218
	c1.978-9.204,10.03-16.191,19.831-16.663c0.352-0.019,0.703-0.027,1.061-0.027c1.082,0,2.139,0.088,3.176,0.243
	c3.467,0.515,6.656,1.85,9.373,3.799c-0.264-1.079-0.416-2.205-0.416-3.366c0-7.96,6.543-14.416,14.611-14.416
	c3.42,0,6.557,1.165,9.043,3.107v10.403c0,8.634,6.999,15.633,15.634,15.633H245.039z M511.126,210.031
	c-10.963-8.05-27.462,8.988-34.353,27.551c-6.892,18.563-22.403,23.389-34.624,38.76c-14.065,17.697-10.581,32.89-8.031,39.272
	h9.208c7.396-10.397,14.396-21.062,21.05-31.938c-0.508-0.092-0.979-0.482-0.941-1.14c0.379-7.106,1.583-14.174,1.242-21.31
	c-0.061-1.384,2.082-1.724,2.146-0.329c0.325,6.92-0.702,13.764-1.149,20.651c9.143-15.105,17.656-30.592,25.653-46.336
	c0.624-1.234,2.655-0.473,2.026,0.778c-9.468,18.641-19.635,36.946-30.74,54.661c3.129-1.553,6.211-3.166,8.874-5.483
	c1.057-0.918,2.399,0.785,1.351,1.707c-3.596,3.129-7.937,5.021-12.143,7.151c-0.099,0.049-0.183,0.052-0.277,0.072
	c-4.636,7.281-9.431,14.462-14.41,21.518h11.569c8.414-3.25,17.209-9.562,22.278-21.693c11.869-28.397,6.688-25.456,18.92-42.341
	C511.003,234.692,522.083,218.086,511.126,210.031z M447.484,237.31c-1.162-19.597-11.081-32.473-6.049-51.621
	c5.036-19.146,1.327-42.582-12.268-42.292c-13.598,0.288-14.076,20.247-13.778,41.095c0.295,20.848-2.246,15.465-8.864,45.53
	c-4.511,20.501,7.278,34.32,15.233,41.046c-0.106-9.921,0.119-19.834,0.568-29.733c-0.063-0.071-0.133-0.123-0.18-0.219
	c-2.225-4.16-4.684-8.212-5.824-12.831c-0.335-1.355,1.742-1.981,2.083-0.619c0.841,3.427,2.438,6.515,4.11,9.588
	c1.099-20.881,3.301-41.706,6.271-62.4c0.2-1.381,2.303-0.841,2.104,0.528c-2.509,17.481-4.448,35.049-5.646,52.663
	c3.592-5.896,6.682-12.082,10.929-17.559c0.854-1.108,2.415,0.41,1.565,1.502c-4.378,5.646-7.459,12.119-11.23,18.152
	c-0.35,0.562-0.956,0.613-1.421,0.393c-0.901,14.077-1.34,28.18-1.134,42.294c2.593,1.973,4.401,2.973,4.401,2.973
	s0.214-0.091,0.588-0.276c-1.162,13.42-3.603,26.717-4.441,40.088h3.871c0.871-14.203,3.539-28.334,4.597-42.593
	C439.021,268.541,448.714,258.061,447.484,237.31z M387.089,248.069c-6.993-16.452-14.291-31.934-25.051-27.447
	c-4.279,1.786-6.025,5.975-5.918,11.203c6.64,7.615,10.459,16.685,12.252,27.941c9.015,12.719,6.233,25.757,11.865,40.845
	c2.521,6.754,5.86,11.567,9.36,15.003h19.354c-4.188-9.512-8.703-18.87-13.499-28.083c-0.289,0.332-0.785,0.504-1.252,0.187
	c-5.052-3.424-9.714-7.43-15.105-10.338c-1.043-0.564-0.344-2.293,0.71-1.719c5.229,2.825,9.798,6.601,14.656,9.974
	c-7.046-13.394-14.66-26.496-22.688-39.331c-0.632-1.011,0.829-2.157,1.465-1.148c9.51,15.199,18.456,30.766,26.556,46.752
	c0.245-2.981,0.426-5.96-0.101-8.941c-0.206-1.18,1.64-1.414,1.851-0.234c0.705,4.015,0.18,8.051-0.117,12.076
	c-0.007,0.096-0.044,0.167-0.066,0.241c3.371,6.777,6.593,13.628,9.634,20.565h2.266c3.485-8.397,6.169-21.828-3.438-34.919
	C394.212,259.411,394.085,264.521,387.089,248.069z M352.533,318.055c1.208-0.767,2.326-1.585,3.369-2.441h-3.739
	C352.292,316.427,352.416,317.24,352.533,318.055z M365.06,166.487c0.477,0,0.863-0.385,0.863-0.86v-7.693
	c0-0.476-0.387-0.862-0.863-0.862s-0.863,0.387-0.863,0.862v7.693C364.196,166.103,364.583,166.487,365.06,166.487z M365.06,189.555
	c0.477,0,0.863-0.386,0.863-0.862v-7.69c0-0.479-0.387-0.863-0.863-0.863s-0.863,0.385-0.863,0.863v7.69
	C364.196,189.169,364.583,189.555,365.06,189.555z M358.235,173.313c0-0.476-0.387-0.862-0.863-0.862h-7.691
	c-0.477,0-0.863,0.387-0.863,0.862c0,0.478,0.387,0.864,0.863,0.864h7.691C357.849,174.177,358.235,173.79,358.235,173.313z
	 M371.884,173.313c0,0.478,0.387,0.864,0.863,0.864h7.691c0.477,0,0.863-0.387,0.863-0.864c0-0.476-0.387-0.862-0.863-0.862h-7.691
	C372.271,172.45,371.884,172.837,371.884,173.313z M359.014,168.487c0.337,0.337,0.884,0.337,1.222,0
	c0.336-0.337,0.336-0.883-0.001-1.22l-5.438-5.439c-0.338-0.338-0.885-0.338-1.221,0c-0.338,0.338-0.338,0.884,0,1.221
	L359.014,168.487z M375.324,184.798c0.337,0.337,0.884,0.337,1.22,0c0.338-0.337,0.338-0.883,0-1.222l-5.438-5.438
	c-0.337-0.337-0.884-0.337-1.22,0c-0.338,0.337-0.338,0.883,0,1.22L375.324,184.798z M359.014,178.139l-5.438,5.438
	c-0.338,0.339-0.338,0.885,0,1.222c0.336,0.337,0.883,0.337,1.221,0l5.438-5.439c0.337-0.337,0.337-0.883,0-1.22
	S359.351,177.802,359.014,178.139z M371.105,168.487l5.438-5.438c0.338-0.337,0.338-0.883,0-1.221c-0.336-0.338-0.883-0.338-1.22,0
	l-5.438,5.439c-0.338,0.337-0.338,0.883,0,1.22C370.222,168.824,370.769,168.824,371.105,168.487z M99.573,290.98
	c0.477,0,0.863-0.385,0.863-0.86v-7.693c0-0.476-0.387-0.862-0.863-0.862s-0.863,0.387-0.863,0.862v7.693
	C98.71,290.596,99.097,290.98,99.573,290.98z M99.573,314.048c0.477,0,0.863-0.386,0.863-0.862v-7.69
	c0-0.479-0.387-0.863-0.863-0.863s-0.863,0.385-0.863,0.863v7.69C98.71,313.662,99.097,314.048,99.573,314.048z M84.194,298.67
	h7.691c0.477,0,0.863-0.387,0.863-0.864c0-0.476-0.387-0.862-0.863-0.862h-7.691c-0.477,0-0.863,0.387-0.863,0.862
	C83.331,298.283,83.718,298.67,84.194,298.67z M106.397,297.806c0,0.478,0.387,0.864,0.863,0.864h7.691
	c0.477,0,0.863-0.387,0.863-0.864c0-0.476-0.387-0.862-0.863-0.862h-7.691C106.784,296.943,106.397,297.33,106.397,297.806z
	 M93.527,292.98c0.337,0.337,0.884,0.337,1.222,0c0.336-0.337,0.336-0.883-0.001-1.22l-5.438-5.439
	c-0.338-0.338-0.885-0.338-1.221,0c-0.338,0.338-0.338,0.884,0,1.221L93.527,292.98z M109.838,309.291
	c0.337,0.337,0.884,0.337,1.22,0c0.338-0.337,0.338-0.883,0-1.222l-5.438-5.438c-0.337-0.337-0.884-0.337-1.22,0
	c-0.338,0.337-0.338,0.883,0,1.22L109.838,309.291z M93.527,302.632l-5.438,5.438c-0.338,0.339-0.338,0.885,0,1.222
	c0.336,0.337,0.883,0.337,1.221,0l5.438-5.439c0.337-0.337,0.337-0.883,0-1.22S93.864,302.295,93.527,302.632z M105.619,292.98
	l5.438-5.438c0.338-0.337,0.338-0.883,0-1.221c-0.336-0.338-0.883-0.338-1.22,0l-5.438,5.439c-0.338,0.337-0.338,0.883,0,1.22
	C104.735,293.317,105.282,293.317,105.619,292.98z M480.273,169.487c0.477,0,0.863-0.385,0.863-0.86v-7.693
	c0-0.476-0.387-0.862-0.863-0.862s-0.863,0.387-0.863,0.862v7.693C479.41,169.103,479.797,169.487,480.273,169.487z
	 M480.273,192.555c0.477,0,0.863-0.386,0.863-0.862v-7.69c0-0.479-0.387-0.863-0.863-0.863s-0.863,0.385-0.863,0.863v7.69
	C479.41,192.169,479.797,192.555,480.273,192.555z M464.895,177.177h7.691c0.477,0,0.863-0.387,0.863-0.864
	c0-0.476-0.387-0.862-0.863-0.862h-7.691c-0.477,0-0.863,0.387-0.863,0.862C464.031,176.79,464.418,177.177,464.895,177.177z
	 M487.098,176.313c0,0.478,0.387,0.864,0.863,0.864h7.691c0.477,0,0.863-0.387,0.863-0.864c0-0.476-0.387-0.862-0.863-0.862h-7.691
	C487.484,175.45,487.098,175.837,487.098,176.313z M474.228,171.487c0.337,0.337,0.884,0.337,1.222,0
	c0.336-0.337,0.336-0.883-0.001-1.22l-5.438-5.439c-0.338-0.338-0.885-0.338-1.221,0c-0.338,0.338-0.338,0.884,0,1.221
	L474.228,171.487z M490.538,187.798c0.337,0.337,0.884,0.337,1.22,0c0.338-0.337,0.338-0.883,0-1.222l-5.438-5.438
	c-0.337-0.337-0.884-0.337-1.22,0c-0.338,0.337-0.338,0.883,0,1.22L490.538,187.798z M474.228,181.139l-5.438,5.438
	c-0.338,0.339-0.338,0.885,0,1.222c0.336,0.337,0.883,0.337,1.221,0l5.438-5.439c0.337-0.337,0.337-0.883,0-1.22
	S474.564,180.802,474.228,181.139z M486.319,171.487l5.438-5.438c0.338-0.337,0.338-0.883,0-1.221c-0.336-0.338-0.883-0.338-1.22,0
	l-5.438,5.439c-0.338,0.337-0.338,0.883,0,1.22C485.436,171.824,485.982,171.824,486.319,171.487z M507.272,271.846
	c-0.389,0-0.704,0.315-0.704,0.703v6.272c0,0.388,0.315,0.702,0.704,0.702s0.704-0.314,0.704-0.702v-6.272
	C507.977,272.162,507.661,271.846,507.272,271.846z M507.272,290.653c-0.389,0-0.704,0.313-0.704,0.704v6.27
	c0,0.389,0.315,0.703,0.704,0.703s0.704-0.314,0.704-0.703v-6.27C507.977,290.967,507.661,290.653,507.272,290.653z
	 M501.709,285.088c0-0.388-0.315-0.703-0.704-0.703h-6.271c-0.389,0-0.704,0.315-0.704,0.703c0,0.389,0.315,0.705,0.704,0.705h6.271
	C501.394,285.792,501.709,285.477,501.709,285.088z M519.811,284.385h-6.271c-0.389,0-0.704,0.315-0.704,0.703
	c0,0.389,0.315,0.705,0.704,0.705h6.271c0.389,0,0.704-0.315,0.704-0.705C520.515,284.7,520.199,284.385,519.811,284.385z
	 M498.904,275.725c-0.275-0.275-0.721-0.275-0.995,0c-0.275,0.276-0.275,0.721,0,0.996l4.435,4.434c0.274,0.275,0.72,0.275,0.996,0
	c0.273-0.274,0.273-0.72-0.002-0.994L498.904,275.725z M512.201,289.023c-0.274-0.275-0.72-0.275-0.994,0
	c-0.275,0.274-0.275,0.72,0,0.994l4.434,4.435c0.275,0.275,0.721,0.275,0.995,0c0.275-0.274,0.275-0.72,0-0.996L512.201,289.023z
	 M502.344,289.023l-4.435,4.433c-0.275,0.276-0.275,0.722,0,0.996c0.274,0.275,0.72,0.275,0.995,0l4.434-4.435
	c0.275-0.274,0.275-0.72,0-0.994C503.063,288.748,502.618,288.748,502.344,289.023z M511.207,281.154
	c0.274,0.275,0.72,0.275,0.994,0l4.435-4.434c0.275-0.275,0.275-0.72,0-0.996c-0.274-0.275-0.72-0.275-0.995,0l-4.434,4.435
	C510.932,280.434,510.932,280.879,511.207,281.154z"></path>
<path id="color_x5F_2" fill="#003399" d="M270.106,248.116c0.211-0.103,0.417-0.146,0.614-0.11c0.1,0.019,1.542-0.042,1.65-0.006
	c0.557,0.183,5.124,0.964,5.086,5.544c0.041,0.046,0.078,0.091,0.118,0.138c0.069-0.027,0.128-0.05,0.17-0.067
	c0.037-0.016,0.815,1.601,1.679,3.378c4.504,1.912,10.939,6.706,10.939,6.706s1.109,0.688,2.781,1.761V158.235H137.262v261.417
	v17.391h75.03h3.498h17.406h59.948V282.757c-6.987-6.245-14.523-14.894-17.094-21.064c-1.47-0.519-3.12-1.102-3.125-1.101
	c-0.072,0.013-0.139,0.028-0.215,0.039c-0.509,0.074-1.097,0.056-1.734-0.031c-1.862-0.255-4.643-2.636-5.291-4.629
	c-0.792-2.439,1.95-5.386,2.104-5.553c0.221-0.237,0.983-0.428,0.754-0.755c-1.004-1.429-5.314-3.569-4.334-5.083
	C264.924,243.473,267.746,246.323,270.106,248.116z M203.991,214.254c2.412-2.117,6.03-3.425,10.855-3.926v-4.677h7.067v4.609
	c4.528,0.25,9.092,1.365,13.688,3.345l-4.063,9.729c-4.757-2.139-9.046-3.209-12.869-3.209c-1.821,0-3.102,0.222-3.841,0.666
	c-0.74,0.444-1.109,1.099-1.109,1.963c0,0.751,0.267,1.372,0.802,1.861s1.462,1.036,2.782,1.639s3.152,1.303,5.496,2.099
	c4.757,1.685,8.171,3.602,10.242,5.752c2.07,2.15,3.106,4.921,3.106,8.313c0,3.823-1.212,6.93-3.636,9.319
	c-2.424,2.39-5.957,3.87-10.6,4.438v6.589h-7.067v-6.384c-4.983-0.228-9.786-1.343-14.406-3.346v-11.333
	c2.641,1.343,5.508,2.464,8.604,3.362c3.095,0.899,5.814,1.349,8.158,1.349c1.935,0,3.352-0.233,4.251-0.7
	c0.898-0.466,1.348-1.246,1.348-2.338c0-0.751-0.324-1.388-0.973-1.912c-0.648-0.523-1.729-1.115-3.243-1.775
	s-3.556-1.456-6.128-2.39c-2.89-1.069-5.223-2.271-6.998-3.602c-1.775-1.332-3.066-2.822-3.874-4.472
	c-0.809-1.65-1.212-3.704-1.212-6.162C200.373,219.306,201.579,216.37,203.991,214.254z M197.912,288.637h41.998
	c1.104,0,2,0.896,2,2s-0.896,2-2,2h-41.998c-1.104,0-2-0.896-2-2S196.808,288.637,197.912,288.637z M260.909,312.136h-83.996
	c-1.104,0-2-0.896-2-2s0.896-2,2-2h83.996c1.104,0,2,0.896,2,2S262.014,312.136,260.909,312.136z M510.845,315.614h-53.269h-11.569
	h-2.681h-9.208h-5.745h-3.871H413.26h-2.266h-2.043h-19.354h-9.809c0.177,0.512,0.293,1.053,0.293,1.625c0,2.761-2.238,5-5,5
	s-5-2.239-5-5c0-0.572,0.116-1.113,0.293-1.625h-14.473c-1.043,0.856-2.161,1.674-3.369,2.441c-0.117-0.814-0.241-1.628-0.37-2.441
	h-4.693c-1.107,0-2.175,0.161-3.195,0.437c-5.195,1.407-9.022,6.141-9.022,11.782v106.344v4.124c0,6.747,5.47,12.217,12.218,12.217
	h163.375c6.748,0,12.218-5.471,12.218-12.217V327.832C523.063,321.084,517.593,315.614,510.845,315.614z M382.401,436.129
	c-2.776,0-5.354-0.84-7.5-2.276c-2.146,1.436-4.724,2.276-7.499,2.276c-7.456,0-13.5-6.044-13.5-13.5s6.044-13.5,13.5-13.5
	c2.775,0,5.354,0.84,7.499,2.276c2.146-1.436,4.724-2.276,7.5-2.276c7.455,0,13.499,6.044,13.499,13.5
	S389.856,436.129,382.401,436.129z M496.397,423.13h-83.996c-1.104,0-2-0.896-2-2s0.896-2,2-2h83.996c1.104,0,2,0.896,2,2
	S497.502,423.13,496.397,423.13z M496.397,406.631h-40.498c-1.104,0-2-0.896-2-2s0.896-2,2-2h40.498c1.104,0,2,0.896,2,2
	S497.502,406.631,496.397,406.631z M496.397,348.134h-41.998c-1.104,0-2-0.896-2-2s0.896-2,2-2h41.998c1.104,0,2,0.896,2,2
	S497.502,348.134,496.397,348.134z"></path>
<path id="color_x5F_1" fill="#ff9933" d="M301.51,160.465v110.6c-2.957-2.093-6.154-4.187-8.365-5.606V158.235H137.262v261.417
	v17.391h75.03h3.498h17.406h59.948V282.757c3.046,2.723,5.984,4.986,8.365,6.389v145.819c0,8.634-7,15.633-15.633,15.633h-40.838
	H144.53c-8.635,0-15.634-6.999-15.634-15.633v-10.403V160.465c0-8.634,6.999-15.633,15.634-15.633h141.347
	C294.51,144.832,301.51,151.831,301.51,160.465z M454.399,348.134h41.998c1.104,0,2-0.896,2-2s-0.896-2-2-2h-41.998
	c-1.104,0-2,0.896-2,2S453.295,348.134,454.399,348.134z M195.912,290.637c0,1.104,0.896,2,2,2h41.998c1.104,0,2-0.896,2-2
	s-0.896-2-2-2h-41.998C196.808,288.637,195.912,289.532,195.912,290.637z M496.397,419.13h-83.996c-1.104,0-2,0.896-2,2s0.896,2,2,2
	h83.996c1.104,0,2-0.896,2-2S497.502,419.13,496.397,419.13z M174.913,310.136c0,1.104,0.896,2,2,2h83.996c1.104,0,2-0.896,2-2
	s-0.896-2-2-2h-83.996C175.809,308.136,174.913,309.031,174.913,310.136z M496.397,402.631h-40.498c-1.104,0-2,0.896-2,2
	s0.896,2,2,2h40.498c1.104,0,2-0.896,2-2S497.502,402.631,496.397,402.631z M214.847,205.651v4.677
	c-4.825,0.5-8.443,1.809-10.855,3.926c-2.412,2.116-3.618,5.052-3.618,8.808c0,2.458,0.403,4.512,1.212,6.162
	c0.808,1.65,2.099,3.141,3.874,4.472c1.775,1.331,4.108,2.532,6.998,3.602c2.572,0.934,4.614,1.729,6.128,2.39
	s2.595,1.252,3.243,1.775c0.648,0.524,0.973,1.161,0.973,1.912c0,1.092-0.449,1.872-1.348,2.338c-0.899,0.466-2.316,0.7-4.251,0.7
	c-2.344,0-5.063-0.449-8.158-1.349c-3.096-0.898-5.963-2.02-8.604-3.362v11.333c4.62,2.003,9.423,3.118,14.406,3.346v6.384h7.067
	v-6.589c4.643-0.568,8.176-2.048,10.6-4.438c2.424-2.389,3.636-5.496,3.636-9.319c0-3.391-1.036-6.162-3.106-8.313
	c-2.071-2.151-5.485-4.068-10.242-5.752c-2.344-0.796-4.176-1.496-5.496-2.099s-2.247-1.149-2.782-1.639s-0.802-1.11-0.802-1.861
	c0-0.864,0.369-1.519,1.109-1.963c0.739-0.444,2.02-0.666,3.841-0.666c3.823,0,8.112,1.07,12.869,3.209l4.063-9.729
	c-4.597-1.98-9.16-3.095-13.688-3.345v-4.609H214.847z"></path>
</svg>