<svg id="visual" viewBox="0 0 1440 620" width="1440" height="620" xmlns="http://www.w3.org/2000/svg" xmlns:xlink="http://www.w3.org/1999/xlink" version="1.1"><rect x="0" y="0" width="1440" height="620" fill="#fff"></rect><path d="M0 543L60 544.7C120 546.3 240 549.7 360 510.7C480 471.7 600 390.3 720 379.7C840 369 960 429 1080 438.8C1200 448.7 1320 408.3 1380 388.2L1440 368L1440 0L1380 0C1320 0 1200 0 1080 0C960 0 840 0 720 0C600 0 480 0 360 0C240 0 120 0 60 0L0 0Z" fill="#003399" stroke-linecap="round" stroke-linejoin="miter"></path></svg>